<svg width="98" height="98" viewBox="0 0 98 98" fill="none" xmlns="http://www.w3.org/2000/svg">
<path d="M49 0.875C22.4238 0.875 0.875 22.9824 0.875 50.2246C0.875 72.0313 14.668 90.5078 33.7891 97.0391C34.0573 97.0973 34.331 97.1261 34.6055 97.125C36.3887 97.125 37.0762 95.8145 37.0762 94.6758C37.0762 93.4941 37.0332 90.4004 37.0117 86.2754C35.4198 86.6486 33.7913 86.8432 32.1563 86.8555C22.8965 86.8555 20.791 79.6582 20.791 79.6582C18.5996 73.9649 15.4414 72.4395 15.4414 72.4395C11.252 69.4961 15.4199 69.4102 15.7422 69.4102H15.7637C20.5977 69.8398 23.1328 74.5234 23.1328 74.5234C25.5391 78.7344 28.7617 79.916 31.6406 79.916C33.5442 79.878 35.4184 79.4387 37.1406 78.627C37.5703 75.4473 38.8164 73.2774 40.1914 72.0313C29.5137 70.7852 18.2773 66.5527 18.2773 47.6465C18.2773 42.2539 20.1465 37.8496 23.2188 34.4121C22.7246 33.166 21.0703 28.1387 23.6914 21.3496C24.043 21.2655 24.4043 21.2293 24.7656 21.2422C26.5059 21.2422 30.4375 21.9082 36.9258 26.4199C44.8096 24.2141 53.1475 24.2141 61.0312 26.4199C67.5195 21.9082 71.4512 21.2422 73.1914 21.2422C73.5527 21.2293 73.914 21.2655 74.2656 21.3496C76.8867 28.1387 75.2324 33.166 74.7383 34.4121C77.8105 37.8711 79.6797 42.2754 79.6797 47.6465C79.6797 66.5957 68.4219 70.7637 57.7012 71.9883C59.4199 73.5137 60.9668 76.5215 60.9668 81.1191C60.9668 87.7148 60.9023 93.043 60.9023 94.6543C60.9023 95.8145 61.5684 97.125 63.3516 97.125C63.6402 97.1263 63.9282 97.0975 64.2109 97.0391C83.3535 90.5078 97.125 72.0098 97.125 50.2246C97.125 22.9824 75.5762 0.875 49 0.875Z" fill="#525649"/>
</svg>
