<svg width="110" height="110" viewBox="0 0 110 110" fill="none" xmlns="http://www.w3.org/2000/svg">
<path d="M99.6875 14.2914C99.6604 11.4648 98.5202 8.76274 96.5141 6.77117C94.5081 4.77959 91.7979 3.659 88.9711 3.65234L20.9773 3.4375C18.1535 3.43806 15.4451 4.55832 13.4459 6.55267C11.4467 8.54702 10.3199 11.2527 10.3125 14.0766V84.2188C10.3125 90.084 15.0992 94.5312 20.9773 94.5312H79.0625L76.2695 85.0781L99.6875 106.562V14.2914ZM69.749 70.8576C69.749 70.8576 67.8756 68.6254 66.3115 66.7068C73.1307 64.7861 75.7324 60.5859 75.7324 60.5859C73.8595 61.8284 71.8523 62.8554 69.749 63.6475C67.3205 64.6558 64.792 65.4041 62.2059 65.8797C57.7499 66.6982 53.1805 66.6807 48.7309 65.8281C46.1135 65.3421 43.5518 64.5935 41.0846 63.5938C39.7794 63.0938 38.5102 62.5045 37.2861 61.8299C37.1293 61.7268 36.9746 61.6752 36.8178 61.5699C36.7125 61.5184 36.6609 61.4668 36.6029 61.4668C35.6662 60.9469 35.1463 60.5838 35.1463 60.5838C35.1463 60.5838 37.6428 64.6852 44.2514 66.6553C42.6895 68.6275 40.7645 70.9113 40.7645 70.9113C29.2682 70.5482 24.8982 63.076 24.8982 63.076C24.8982 46.5201 32.3898 33.0795 32.3898 33.0795C39.8814 27.5258 46.9562 27.6826 46.9562 27.6826L47.4762 28.3057C38.1111 30.9525 33.8465 35.0518 33.8465 35.0518C33.8465 35.0518 34.9895 34.4287 36.9145 33.5973C42.4811 31.1588 46.9047 30.5357 48.7309 30.3295C49.0223 30.2689 49.3185 30.2337 49.616 30.2242C53.1021 29.7719 56.6297 29.7373 60.124 30.1211C65.6106 30.7513 70.926 32.4249 75.784 35.0518C75.784 35.0518 71.674 31.1523 62.8289 28.5098L63.5572 27.6805C63.5572 27.6805 70.6836 27.5236 78.1258 33.0859C78.1258 33.0859 85.6174 46.5266 85.6174 63.0824C85.6174 63.0223 81.2453 70.4945 69.749 70.8576Z" fill="#525649"/>
<path d="M45.5576 46.8359C42.5928 46.8359 40.251 49.3797 40.251 52.5443C40.251 55.709 42.6443 58.2527 45.5576 58.2527C48.5225 58.2527 50.8643 55.7111 50.8643 52.5443C50.918 49.3732 48.5225 46.8359 45.5576 46.8359ZM64.5455 46.8359C61.5807 46.8359 59.2389 49.3797 59.2389 52.5443C59.2389 55.709 61.6322 58.2527 64.5455 58.2527C67.5125 58.2527 69.8521 55.7111 69.8521 52.5443C69.8521 49.3775 67.4609 46.8359 64.5455 46.8359Z" fill="#525649"/>
</svg>
