<svg width="406" height="355" viewBox="0 0 406 355" fill="none" xmlns="http://www.w3.org/2000/svg">
<path d="M284.134 104.431C284.211 126.105 275.79 146.937 260.697 162.409C245.604 177.882 225.054 186.75 203.503 187.09C181.951 187.429 161.135 179.214 145.567 164.225C129.998 149.236 120.932 128.68 120.334 107.014C119.735 85.3484 127.652 64.3185 142.369 48.4831C157.086 32.6477 177.417 23.2831 198.953 22.4193C220.49 21.5554 241.498 29.262 257.422 43.8684C273.347 58.4747 282.904 78.8038 284.024 100.449" fill="#ECECEC"/>
<path d="M55.7694 240.823C44.9956 280.125 28.9197 314.452 18.1096 353.743C19.1989 356.125 22.7056 354.279 24.7024 354.858C145.606 354.816 266.541 354.943 387.429 354.794C389.656 353.477 386.848 350.384 386.907 348.43C376.421 310.642 361.798 275.794 351.302 238.011C249.696 238.011 157.591 240.068 55.9857 240.068L55.8457 240.557L55.7694 240.823Z" fill="black"/>
<path d="M354.641 236.09L387.262 353.611C387.295 353.731 387.14 353.836 386.987 353.836H19.5126C19.3603 353.836 19.2056 353.732 19.2376 353.611L51.4097 236.09H354.641Z" fill="#DCD3BA"/>
<path opacity="0.4856" d="M344.42 352.709C344.42 352.142 342.698 350.561 341.793 350.299C340.591 349.949 337.015 347.842 337.015 347.484C337.015 347.326 336.806 347.19 336.552 347.181C335.175 347.135 331.246 342.454 330.372 339.818C330.035 338.803 329.543 338.258 328.482 337.726C327.693 337.33 326.788 337.006 326.47 337.006C326.153 337.006 325.022 336.552 323.956 335.998C322.891 335.443 321.02 334.689 319.798 334.323C316.318 333.278 314.603 332.332 312.178 330.119C310.445 328.538 309.767 327.609 309.229 326.076C308.845 324.981 308.525 323.823 308.518 323.503C308.511 323.183 308.027 322.271 307.441 321.476C306.856 320.682 306.262 319.674 306.121 319.238C305.98 318.801 305.709 318.444 305.519 318.444C305.329 318.444 305.174 318.123 305.174 317.73C305.174 316.759 301.672 313.478 299.62 312.526C298.704 312.101 297.821 311.539 297.658 311.277C297.495 311.015 296.745 310.801 295.992 310.801C293.59 310.8 285.181 308.3 285.181 307.586C285.181 307.424 284.684 306.745 284.076 306.076C283.468 305.407 282.864 304.527 282.733 304.121C282.601 303.714 281.849 302.346 281.061 301.08C279.671 298.847 279.627 298.676 279.622 295.417C279.616 292.315 279.243 290.439 278.324 288.902C278.124 288.568 276.628 287.659 274.999 286.883C273.37 286.106 271.566 285.165 270.99 284.791C270.115 284.223 268.871 284.068 263.4 283.847C256.476 283.568 253.218 282.904 251.051 281.329C250.494 280.924 249.897 280.592 249.726 280.592C249.555 280.592 249.205 280.019 248.947 279.318C248.689 278.618 248.239 278.044 247.947 278.044C247.655 278.044 247.416 277.884 247.416 277.688C247.416 277.219 243.371 273.313 242.886 273.313C242.565 273.313 238.495 271.399 236.123 270.133C235.716 269.915 234.383 269.548 233.161 269.317C230.688 268.848 227.813 267.601 227.528 266.872C227.426 266.611 227.153 266.398 226.92 266.398C226.193 266.398 224.589 264.096 224.316 262.662C224.172 261.909 224.042 258.648 224.027 255.415C223.999 249.624 223.983 249.515 222.96 247.929C222.389 247.044 221.202 245.601 220.322 244.723C219.442 243.845 217.929 242.323 216.961 241.34C215.993 240.358 214.455 238.878 213.544 238.052L212.097 236.094H354.641L370.758 294.788C379.508 326.652 386.225 352.881 386.237 352.932C386.248 352.982 376.844 353.023 365.339 353.023C353.833 353.023 344.42 352.884 344.42 352.713L344.42 352.709Z" fill="#89D375"/>
<path d="M273.261 236.09H296.587L301.735 353.835H268.043L273.261 236.09Z" fill="#F7FD9F"/>
<path d="M372.783 299.803L377.967 320.185H72.1438L77.3272 302.351L372.783 299.803Z" fill="#ECECEC"/>
<path d="M82.5106 236.11H103.244L84.5493 320.226H58.6321L82.5106 236.11Z" fill="#ECECEC"/>
<path opacity="0.8" d="M354.641 236.09L387.262 353.611C387.295 353.731 387.14 353.836 386.987 353.836H19.5126C19.3603 353.836 19.2056 353.732 19.2376 353.611L51.4097 236.09H354.641Z" stroke="black" stroke-width="0.838233"/>
<path d="M202.056 14.542C150.49 14.542 108.853 55.5145 108.853 106.051C108.853 121.942 112.984 136.893 120.224 149.92L202.061 284.598L283.897 149.92C291.137 136.893 295.268 121.942 295.268 106.051C295.268 55.5125 253.631 14.542 202.065 14.542H202.056ZM202.68 35.2944C221.739 34.4933 238.63 42.3967 251.643 55.3704C263.179 66.8717 271.253 83.5369 270.882 102.998C271.121 124.127 261.748 141.224 249.953 152.764C237.47 164.977 221.854 171.191 203.009 171.471C186.418 170.815 171.32 164.38 160.428 155.237C145.431 142.647 137.524 124.592 136.651 106.406C136.821 87.7353 141.931 71.3369 152.814 58.668C164.629 44.9145 183.001 35.6559 202.68 35.2944Z" fill="#E52626" stroke="black" stroke-width="0.871511"/>
<path d="M102.514 329.859C95.2639 329.859 88.8093 328.87 83.1502 326.893C77.4911 324.939 72.707 322.064 68.7979 318.268C64.8889 314.495 61.9116 309.882 59.8661 304.427C57.8207 298.973 56.7979 292.768 56.7979 285.814C56.7979 278.95 57.8207 272.723 59.8661 267.132C61.9343 261.541 64.9457 256.745 68.9002 252.745C72.8548 248.723 77.6843 245.632 83.3889 243.473C89.1161 241.314 95.6389 240.234 102.957 240.234C109.73 240.234 115.775 241.223 121.093 243.2C126.434 245.177 130.957 247.995 134.662 251.654C138.389 255.291 141.218 259.62 143.15 264.643C145.105 269.643 146.071 275.177 146.048 281.245C146.071 285.427 145.707 289.268 144.957 292.768C144.207 296.268 143.025 299.325 141.412 301.939C139.821 304.529 137.73 306.586 135.139 308.109C132.548 309.609 129.412 310.461 125.73 310.666C123.093 310.87 120.957 310.677 119.321 310.086C117.684 309.495 116.434 308.62 115.571 307.461C114.73 306.279 114.184 304.904 113.934 303.336H113.525C112.98 304.7 111.912 305.939 110.321 307.052C108.73 308.143 106.787 308.995 104.491 309.609C102.218 310.2 99.7979 310.416 97.2298 310.257C94.5479 310.098 92.0025 309.473 89.5934 308.382C87.207 307.291 85.082 305.711 83.2184 303.643C81.3775 301.575 79.9229 299.018 78.8548 295.973C77.8093 292.927 77.2752 289.404 77.2525 285.404C77.2752 281.45 77.832 278.007 78.9229 275.075C80.0366 272.143 81.5025 269.677 83.3207 267.677C85.1616 265.677 87.207 264.109 89.457 262.973C91.707 261.836 93.9684 261.109 96.2411 260.791C98.8093 260.404 101.241 260.404 103.537 260.791C105.832 261.177 107.764 261.802 109.332 262.666C110.923 263.529 111.912 264.461 112.298 265.461H112.775V261.643H123.446V294.916C123.468 296.484 123.821 297.7 124.502 298.564C125.184 299.427 126.105 299.859 127.264 299.859C128.832 299.859 130.139 299.166 131.184 297.779C132.252 296.393 133.048 294.268 133.571 291.404C134.116 288.541 134.389 284.893 134.389 280.461C134.389 276.189 133.821 272.439 132.684 269.211C131.571 265.961 130.002 263.2 127.98 260.927C125.98 258.632 123.65 256.768 120.991 255.336C118.332 253.904 115.446 252.859 112.332 252.2C109.241 251.541 106.059 251.211 102.787 251.211C97.1275 251.211 92.1843 252.075 87.957 253.802C83.7298 255.507 80.207 257.904 77.3889 260.995C74.5707 264.086 72.457 267.711 71.0479 271.87C69.6616 276.007 68.957 280.518 68.9343 285.404C68.957 290.791 69.707 295.564 71.1843 299.723C72.6843 303.859 74.8889 307.336 77.7979 310.154C80.707 312.973 84.2979 315.109 88.5707 316.564C92.8434 318.018 97.7525 318.745 103.298 318.745C105.912 318.745 108.468 318.552 110.968 318.166C113.468 317.802 115.73 317.348 117.752 316.802C119.775 316.279 121.4 315.768 122.627 315.268L126.002 325.154C124.571 325.973 122.627 326.734 120.173 327.439C117.741 328.166 114.991 328.745 111.923 329.177C108.877 329.632 105.741 329.859 102.514 329.859ZM100.946 299.041C103.718 299.041 105.923 298.507 107.559 297.439C109.218 296.37 110.4 294.791 111.105 292.7C111.832 290.586 112.173 287.984 112.127 284.893C112.105 282.166 111.752 279.859 111.071 277.973C110.412 276.064 109.264 274.62 107.627 273.643C106.014 272.643 103.764 272.143 100.877 272.143C98.3548 272.143 96.207 272.677 94.4343 273.745C92.6843 274.814 91.3434 276.314 90.4116 278.245C89.5025 280.154 89.0366 282.404 89.0139 284.995C89.0366 287.404 89.4229 289.689 90.1729 291.848C90.9229 293.984 92.1616 295.723 93.8889 297.064C95.6161 298.382 97.9684 299.041 100.946 299.041Z" fill="black"/>
<path fill-rule="evenodd" clip-rule="evenodd" d="M185.041 61.575C181.69 61.575 178.982 63.5806 178.982 66.0623V70.9126V118.327V132.152H227.41V118.327V70.9126V66.0623C227.41 63.5806 224.702 61.575 221.351 61.575H185.041Z" fill="black"/>
<path d="M234.447 129.811H171.441V139.502H234.447V129.811Z" fill="black"/>
<path d="M216.717 72.4387H187.659C185.94 72.4387 184.546 73.8086 184.546 75.4984V82.5592C184.546 84.249 185.94 85.6188 187.659 85.6188H216.717C218.436 85.6188 219.829 84.249 219.829 82.5592V75.4984C219.829 73.8086 218.436 72.4387 216.717 72.4387Z" fill="#EEEEEE"/>
<path d="M226.838 93.8366H235.027C234.914 93.8366 234.565 113.945 235.027 121.587C235.317 126.37 247.311 124.82 247.311 121.173V85.5529" stroke="#3A3737" stroke-width="0.371698"/>
<path d="M237.875 75.5049C252.58 78.2362 246.115 86.2828 248.686 90.0898" stroke="black" stroke-width="0.531642"/>
<path fill-rule="evenodd" clip-rule="evenodd" d="M248.005 82.5859C248.38 84.1179 248.479 85.9418 248.281 87.6571C248.082 89.3725 247.602 90.839 246.946 91.7346C246.29 92.6303 245.512 92.8817 244.782 92.4338C244.052 91.9859 243.43 90.8753 243.054 89.3458C242.677 87.8163 242.575 85.9931 242.772 84.2765C242.968 82.5599 243.446 81.0904 244.101 80.1906C244.756 79.2909 245.534 79.0344 246.265 79.4777C246.995 79.9209 247.618 81.0276 247.997 82.5546L245.527 85.958L248.005 82.5859Z" fill="#EEEEEE" stroke="black" stroke-width="0.214761" stroke-linecap="round" stroke-linejoin="round"/>
</svg>
