<svg width="476" height="355" viewBox="0 0 476 355" fill="none" xmlns="http://www.w3.org/2000/svg">
<rect width="476" height="355" rx="25" fill="#211E1E"/>
<rect x="182.076" y="40.4825" width="13.0055" height="20.2412" fill="#00FF00"/>
<rect x="273.115" y="40.4825" width="13.0055" height="20.2412" fill="#00FF00"/>
<path fill-rule="evenodd" clip-rule="evenodd" d="M322.535 59.1667H143.06V143.246H322.535V59.1667ZM317.333 113.662H148.262V118.333H317.333V113.662ZM158.667 82.522H192.481V101.206H158.667V82.522ZM304.328 82.522H270.514V101.206H304.328V82.522Z" fill="#00FF00"/>
<rect x="106.645" y="84.079" width="26.0109" height="35.8114" fill="#00FF00"/>
<rect x="335.541" y="84.079" width="26.0109" height="35.8114" fill="#00FF00"/>
<rect x="88.4373" y="143.246" width="31.2131" height="84.0789" fill="#00FF00"/>
<rect x="345.945" y="143.246" width="31.2131" height="84.0789" fill="#00FF00"/>
<rect x="132.656" y="147.917" width="202.885" height="88.75" fill="#00FF00"/>
<rect x="171.672" y="244.452" width="44.2186" height="38.9254" fill="#00FF00"/>
<rect x="249.705" y="244.452" width="44.2186" height="38.9254" fill="#00FF00"/>
<rect x="156.066" y="289.605" width="62.4262" height="20.2412" fill="#00FF00"/>
<rect x="247.104" y="289.605" width="62.4262" height="20.2412" fill="#00FF00"/>
<rect x="93.6394" y="264.693" width="20.8087" height="12.4561" fill="#00FF00"/>
<rect x="67.6284" y="241.338" width="26.0109" height="23.3553" fill="#00FF00"/>
<rect x="93.6394" y="231.996" width="23.4098" height="9.34211" fill="#00FF00"/>
<rect x="117.049" y="241.338" width="23.4098" height="18.6842" fill="#00FF00"/>
<rect width="20.8087" height="12.4561" transform="matrix(-1 0 0 1 371.956 264.693)" fill="#00FF00"/>
<rect width="26.0109" height="23.3553" transform="matrix(-1 0 0 1 397.967 241.338)" fill="#00FF00"/>
<rect width="23.4098" height="9.34211" transform="matrix(-1 0 0 1 371.956 231.996)" fill="#00FF00"/>
<rect width="23.4098" height="18.6842" transform="matrix(-1 0 0 1 348.546 241.338)" fill="#00FF00"/>
</svg>
